<?xml version="1.0" encoding="UTF-8" standalone="no"?>
<!DOCTYPE svg PUBLIC "-//W3C//DTD SVG 1.1//EN"
 "http://www.w3.org/Graphics/SVG/1.1/DTD/svg11.dtd">
<!-- Generated by graphviz version 2.40.1 (20161225.0304)
 -->
<!-- Title: dependencies Pages: 1 -->
<svg width="504pt" height="211pt"
 viewBox="0.00 0.00 504.00 211.00" xmlns="http://www.w3.org/2000/svg" xmlns:xlink="http://www.w3.org/1999/xlink">
<g id="graph0" class="graph" transform="scale(1 1) rotate(0) translate(4 207)">
<title>dependencies</title>
<polygon fill="#ffffff" stroke="transparent" points="-4,4 -4,-207 500,-207 500,4 -4,4"/>
<text text-anchor="start" x="227.0091" y="-42.4" font-family="sans-serif" font-weight="bold" font-size="14.00" fill="#000000">Legend</text>
<polygon fill="#ffffb3" stroke="transparent" points="14,-10 14,-30 34,-30 34,-10 14,-10"/>
<text text-anchor="start" x="37.629" y="-15.4" font-family="sans-serif" font-size="14.00" fill="#000000"> &#160;Declarations</text>
<polygon fill="#8dd3c7" stroke="transparent" points="127,-10 127,-30 147,-30 147,-10 127,-10"/>
<text text-anchor="start" x="150.7251" y="-15.4" font-family="sans-serif" font-size="14.00" fill="#000000"> &#160;Module</text>
<polygon fill="#80b1d3" stroke="transparent" points="213,-10 213,-30 233,-30 233,-10 213,-10"/>
<text text-anchor="start" x="236.7812" y="-15.4" font-family="sans-serif" font-size="14.00" fill="#000000"> &#160;Bootstrap</text>
<polygon fill="#fdb462" stroke="transparent" points="310,-10 310,-30 330,-30 330,-10 310,-10"/>
<text text-anchor="start" x="333.6732" y="-15.4" font-family="sans-serif" font-size="14.00" fill="#000000"> &#160;Providers</text>
<polygon fill="#fb8072" stroke="transparent" points="406,-10 406,-30 426,-30 426,-10 406,-10"/>
<text text-anchor="start" x="429.7258" y="-15.4" font-family="sans-serif" font-size="14.00" fill="#000000"> &#160;Exports</text>
<g id="clust1" class="cluster">
<title>cluster_Tab1PageModule</title>
<polygon fill="none" stroke="#000000" stroke-dasharray="1,5" points="8,-70 8,-195 488,-195 488,-70 8,-70"/>
</g>
<g id="clust2" class="cluster">
<title>cluster_Tab1PageModule_declarations</title>
<polygon fill="none" stroke="#000000" points="16,-78 16,-130 480,-130 480,-78 16,-78"/>
</g>
<!-- LevelChoiceComponent -->
<g id="node1" class="node">
<title>LevelChoiceComponent</title>
<polygon fill="#ffffb3" stroke="#000000" points="472.3613,-122 319.6387,-122 319.6387,-86 472.3613,-86 472.3613,-122"/>
<text text-anchor="middle" x="396" y="-99.8" font-family="Times,serif" font-size="14.00" fill="#000000">LevelChoiceComponent</text>
</g>
<!-- Tab1PageModule -->
<g id="node4" class="node">
<title>Tab1PageModule</title>
<polygon fill="#8dd3c7" stroke="#000000" points="265.5298,-187 262.5298,-191 241.5298,-191 238.5298,-187 150.4702,-187 150.4702,-151 265.5298,-151 265.5298,-187"/>
<text text-anchor="middle" x="208" y="-164.8" font-family="Times,serif" font-size="14.00" fill="#000000">Tab1PageModule</text>
</g>
<!-- LevelChoiceComponent&#45;&gt;Tab1PageModule -->
<g id="edge1" class="edge">
<title>LevelChoiceComponent&#45;&gt;Tab1PageModule</title>
<path fill="none" stroke="#000000" d="M396,-122.1061C396,-141.3391 396,-169 396,-169 396,-169 275.6838,-169 275.6838,-169"/>
<polygon fill="#000000" stroke="#000000" points="275.6839,-165.5001 265.6838,-169 275.6838,-172.5001 275.6839,-165.5001"/>
</g>
<!-- LevelChoiceHoardComponent -->
<g id="node2" class="node">
<title>LevelChoiceHoardComponent</title>
<polygon fill="#ffffb3" stroke="#000000" points="301.8431,-122 114.1569,-122 114.1569,-86 301.8431,-86 301.8431,-122"/>
<text text-anchor="middle" x="208" y="-99.8" font-family="Times,serif" font-size="14.00" fill="#000000">LevelChoiceHoardComponent</text>
</g>
<!-- LevelChoiceHoardComponent&#45;&gt;Tab1PageModule -->
<g id="edge2" class="edge">
<title>LevelChoiceHoardComponent&#45;&gt;Tab1PageModule</title>
<path fill="none" stroke="#000000" d="M208,-122.1061C208,-122.1061 208,-140.991 208,-140.991"/>
<polygon fill="#000000" stroke="#000000" points="204.5001,-140.9909 208,-150.991 211.5001,-140.991 204.5001,-140.9909"/>
</g>
<!-- Tab1Page -->
<g id="node3" class="node">
<title>Tab1Page</title>
<polygon fill="#ffffb3" stroke="#000000" points="95.979,-122 24.021,-122 24.021,-86 95.979,-86 95.979,-122"/>
<text text-anchor="middle" x="60" y="-99.8" font-family="Times,serif" font-size="14.00" fill="#000000">Tab1Page</text>
</g>
<!-- Tab1Page&#45;&gt;Tab1PageModule -->
<g id="edge3" class="edge">
<title>Tab1Page&#45;&gt;Tab1PageModule</title>
<path fill="none" stroke="#000000" d="M60,-122.1061C60,-141.3391 60,-169 60,-169 60,-169 140.3555,-169 140.3555,-169"/>
<polygon fill="#000000" stroke="#000000" points="140.3556,-172.5001 150.3555,-169 140.3555,-165.5001 140.3556,-172.5001"/>
</g>
</g>
</svg>
