<?xml version="1.0" encoding="UTF-8" standalone="no"?>
<!DOCTYPE svg PUBLIC "-//W3C//DTD SVG 1.1//EN"
 "http://www.w3.org/Graphics/SVG/1.1/DTD/svg11.dtd">
<!-- Generated by graphviz version 2.40.1 (20161225.0304)
 -->
<!-- Title: dependencies Pages: 1 -->
<svg width="1376pt" height="284pt"
 viewBox="0.00 0.00 1376.00 284.00" xmlns="http://www.w3.org/2000/svg" xmlns:xlink="http://www.w3.org/1999/xlink">
<g id="graph0" class="graph" transform="scale(1 1) rotate(0) translate(4 280)">
<title>dependencies</title>
<polygon fill="#ffffff" stroke="transparent" points="-4,4 -4,-280 1372,-280 1372,4 -4,4"/>
<text text-anchor="start" x="663.0091" y="-42.4" font-family="sans-serif" font-weight="bold" font-size="14.00" fill="#000000">Legend</text>
<polygon fill="#ffffb3" stroke="transparent" points="450,-10 450,-30 470,-30 470,-10 450,-10"/>
<text text-anchor="start" x="473.629" y="-15.4" font-family="sans-serif" font-size="14.00" fill="#000000"> &#160;Declarations</text>
<polygon fill="#8dd3c7" stroke="transparent" points="563,-10 563,-30 583,-30 583,-10 563,-10"/>
<text text-anchor="start" x="586.7251" y="-15.4" font-family="sans-serif" font-size="14.00" fill="#000000"> &#160;Module</text>
<polygon fill="#80b1d3" stroke="transparent" points="649,-10 649,-30 669,-30 669,-10 649,-10"/>
<text text-anchor="start" x="672.7812" y="-15.4" font-family="sans-serif" font-size="14.00" fill="#000000"> &#160;Bootstrap</text>
<polygon fill="#fdb462" stroke="transparent" points="746,-10 746,-30 766,-30 766,-10 746,-10"/>
<text text-anchor="start" x="769.6732" y="-15.4" font-family="sans-serif" font-size="14.00" fill="#000000"> &#160;Providers</text>
<polygon fill="#fb8072" stroke="transparent" points="842,-10 842,-30 862,-30 862,-10 842,-10"/>
<text text-anchor="start" x="865.7258" y="-15.4" font-family="sans-serif" font-size="14.00" fill="#000000"> &#160;Exports</text>
<g id="clust1" class="cluster">
<title>cluster_AppModule</title>
<polygon fill="none" stroke="#000000" stroke-dasharray="1,5" points="8,-70 8,-268 298,-268 298,-70 8,-70"/>
</g>
<g id="clust2" class="cluster">
<title>cluster_AppModule_declarations</title>
<polygon fill="none" stroke="#000000" points="168,-78 168,-130 290,-130 290,-78 168,-78"/>
</g>
<g id="clust4" class="cluster">
<title>cluster_AppModule_imports</title>
<polygon fill="none" stroke="#000000" points="16,-78 16,-130 160,-130 160,-78 16,-78"/>
</g>
<g id="clust6" class="cluster">
<title>cluster_AppModule_bootstrap</title>
<polygon fill="none" stroke="#000000" points="96,-208 96,-260 220,-260 220,-208 96,-208"/>
</g>
<g id="clust14" class="cluster">
<title>cluster_Tab1PageModule</title>
<polygon fill="none" stroke="#000000" stroke-dasharray="1,5" points="306,-70 306,-195 786,-195 786,-70 306,-70"/>
</g>
<g id="clust15" class="cluster">
<title>cluster_Tab1PageModule_declarations</title>
<polygon fill="none" stroke="#000000" points="314,-78 314,-130 778,-130 778,-78 314,-78"/>
</g>
<g id="clust23" class="cluster">
<title>cluster_Tab2PageModule</title>
<polygon fill="none" stroke="#000000" stroke-dasharray="1,5" points="794,-70 794,-195 926,-195 926,-70 794,-70"/>
</g>
<g id="clust24" class="cluster">
<title>cluster_Tab2PageModule_declarations</title>
<polygon fill="none" stroke="#000000" points="816,-78 816,-130 904,-130 904,-78 816,-78"/>
</g>
<g id="clust30" class="cluster">
<title>cluster_Tab3PageModule</title>
<polygon fill="none" stroke="#000000" stroke-dasharray="1,5" points="934,-70 934,-195 1066,-195 1066,-70 934,-70"/>
</g>
<g id="clust31" class="cluster">
<title>cluster_Tab3PageModule_declarations</title>
<polygon fill="none" stroke="#000000" points="956,-78 956,-130 1044,-130 1044,-78 956,-78"/>
</g>
<g id="clust37" class="cluster">
<title>cluster_TabsPageModule</title>
<polygon fill="none" stroke="#000000" stroke-dasharray="1,5" points="1074,-70 1074,-195 1360,-195 1360,-70 1074,-70"/>
</g>
<g id="clust38" class="cluster">
<title>cluster_TabsPageModule_declarations</title>
<polygon fill="none" stroke="#000000" points="1266,-78 1266,-130 1352,-130 1352,-78 1266,-78"/>
</g>
<g id="clust40" class="cluster">
<title>cluster_TabsPageModule_imports</title>
<polygon fill="none" stroke="#000000" points="1082,-78 1082,-130 1258,-130 1258,-78 1082,-78"/>
</g>
<!-- AppComponent -->
<g id="node1" class="node">
<title>AppComponent</title>
<polygon fill="#ffffb3" stroke="#000000" points="281.9399,-122 176.0601,-122 176.0601,-86 281.9399,-86 281.9399,-122"/>
<text text-anchor="middle" x="229" y="-99.8" font-family="Times,serif" font-size="14.00" fill="#000000">AppComponent</text>
</g>
<!-- AppModule -->
<g id="node2" class="node">
<title>AppModule</title>
<polygon fill="#8dd3c7" stroke="#000000" points="199.6571,-187 196.6571,-191 175.6571,-191 172.6571,-187 116.3429,-187 116.3429,-151 199.6571,-151 199.6571,-187"/>
<text text-anchor="middle" x="158" y="-164.8" font-family="Times,serif" font-size="14.00" fill="#000000">AppModule</text>
</g>
<!-- AppComponent&#45;&gt;AppModule -->
<g id="edge1" class="edge">
<title>AppComponent&#45;&gt;AppModule</title>
<path fill="none" stroke="#000000" d="M188.0544,-122.1061C188.0544,-122.1061 188.0544,-140.991 188.0544,-140.991"/>
<polygon fill="#000000" stroke="#000000" points="184.5544,-140.9909 188.0544,-150.991 191.5544,-140.991 184.5544,-140.9909"/>
</g>
<!-- AppComponent  -->
<g id="node4" class="node">
<title>AppComponent </title>
<polygon fill="#80b1d3" stroke="#000000" points="212.439,-252 103.561,-252 103.561,-216 212.439,-216 212.439,-252"/>
<text text-anchor="middle" x="158" y="-229.8" font-family="Times,serif" font-size="14.00" fill="#000000">AppComponent </text>
</g>
<!-- AppModule&#45;&gt;AppComponent  -->
<g id="edge3" class="edge">
<title>AppModule&#45;&gt;AppComponent </title>
<path fill="none" stroke="#000000" stroke-dasharray="1,5" d="M158,-187.1061C158,-187.1061 158,-205.991 158,-205.991"/>
<polygon fill="#000000" stroke="#000000" points="154.5001,-205.9909 158,-215.991 161.5001,-205.991 154.5001,-205.9909"/>
</g>
<!-- AppRoutingModule -->
<g id="node3" class="node">
<title>AppRoutingModule</title>
<polygon fill="#8dd3c7" stroke="#000000" points="152.2744,-122 149.2744,-126 128.2744,-126 125.2744,-122 23.7256,-122 23.7256,-86 152.2744,-86 152.2744,-122"/>
<text text-anchor="middle" x="88" y="-99.8" font-family="Times,serif" font-size="14.00" fill="#000000">AppRoutingModule</text>
</g>
<!-- AppRoutingModule&#45;&gt;AppModule -->
<g id="edge2" class="edge">
<title>AppRoutingModule&#45;&gt;AppModule</title>
<path fill="none" stroke="#000000" d="M134.2795,-122.1061C134.2795,-122.1061 134.2795,-140.991 134.2795,-140.991"/>
<polygon fill="#000000" stroke="#000000" points="130.7795,-140.9909 134.2795,-150.991 137.7795,-140.991 130.7795,-140.9909"/>
</g>
<!-- LevelChoiceComponent -->
<g id="node5" class="node">
<title>LevelChoiceComponent</title>
<polygon fill="#ffffb3" stroke="#000000" points="770.3613,-122 617.6387,-122 617.6387,-86 770.3613,-86 770.3613,-122"/>
<text text-anchor="middle" x="694" y="-99.8" font-family="Times,serif" font-size="14.00" fill="#000000">LevelChoiceComponent</text>
</g>
<!-- Tab1PageModule -->
<g id="node8" class="node">
<title>Tab1PageModule</title>
<polygon fill="#8dd3c7" stroke="#000000" points="563.5298,-187 560.5298,-191 539.5298,-191 536.5298,-187 448.4702,-187 448.4702,-151 563.5298,-151 563.5298,-187"/>
<text text-anchor="middle" x="506" y="-164.8" font-family="Times,serif" font-size="14.00" fill="#000000">Tab1PageModule</text>
</g>
<!-- LevelChoiceComponent&#45;&gt;Tab1PageModule -->
<g id="edge4" class="edge">
<title>LevelChoiceComponent&#45;&gt;Tab1PageModule</title>
<path fill="none" stroke="#000000" d="M694,-122.1061C694,-141.3391 694,-169 694,-169 694,-169 573.6838,-169 573.6838,-169"/>
<polygon fill="#000000" stroke="#000000" points="573.6839,-165.5001 563.6838,-169 573.6838,-172.5001 573.6839,-165.5001"/>
</g>
<!-- LevelChoiceHoardComponent -->
<g id="node6" class="node">
<title>LevelChoiceHoardComponent</title>
<polygon fill="#ffffb3" stroke="#000000" points="599.8431,-122 412.1569,-122 412.1569,-86 599.8431,-86 599.8431,-122"/>
<text text-anchor="middle" x="506" y="-99.8" font-family="Times,serif" font-size="14.00" fill="#000000">LevelChoiceHoardComponent</text>
</g>
<!-- LevelChoiceHoardComponent&#45;&gt;Tab1PageModule -->
<g id="edge5" class="edge">
<title>LevelChoiceHoardComponent&#45;&gt;Tab1PageModule</title>
<path fill="none" stroke="#000000" d="M506,-122.1061C506,-122.1061 506,-140.991 506,-140.991"/>
<polygon fill="#000000" stroke="#000000" points="502.5001,-140.9909 506,-150.991 509.5001,-140.991 502.5001,-140.9909"/>
</g>
<!-- Tab1Page -->
<g id="node7" class="node">
<title>Tab1Page</title>
<polygon fill="#ffffb3" stroke="#000000" points="393.979,-122 322.021,-122 322.021,-86 393.979,-86 393.979,-122"/>
<text text-anchor="middle" x="358" y="-99.8" font-family="Times,serif" font-size="14.00" fill="#000000">Tab1Page</text>
</g>
<!-- Tab1Page&#45;&gt;Tab1PageModule -->
<g id="edge6" class="edge">
<title>Tab1Page&#45;&gt;Tab1PageModule</title>
<path fill="none" stroke="#000000" d="M358,-122.1061C358,-141.3391 358,-169 358,-169 358,-169 438.3555,-169 438.3555,-169"/>
<polygon fill="#000000" stroke="#000000" points="438.3556,-172.5001 448.3555,-169 438.3555,-165.5001 438.3556,-172.5001"/>
</g>
<!-- Tab2Page -->
<g id="node9" class="node">
<title>Tab2Page</title>
<polygon fill="#ffffb3" stroke="#000000" points="895.979,-122 824.021,-122 824.021,-86 895.979,-86 895.979,-122"/>
<text text-anchor="middle" x="860" y="-99.8" font-family="Times,serif" font-size="14.00" fill="#000000">Tab2Page</text>
</g>
<!-- Tab2PageModule -->
<g id="node10" class="node">
<title>Tab2PageModule</title>
<polygon fill="#8dd3c7" stroke="#000000" points="917.5298,-187 914.5298,-191 893.5298,-191 890.5298,-187 802.4702,-187 802.4702,-151 917.5298,-151 917.5298,-187"/>
<text text-anchor="middle" x="860" y="-164.8" font-family="Times,serif" font-size="14.00" fill="#000000">Tab2PageModule</text>
</g>
<!-- Tab2Page&#45;&gt;Tab2PageModule -->
<g id="edge7" class="edge">
<title>Tab2Page&#45;&gt;Tab2PageModule</title>
<path fill="none" stroke="#000000" d="M860,-122.1061C860,-122.1061 860,-140.991 860,-140.991"/>
<polygon fill="#000000" stroke="#000000" points="856.5001,-140.9909 860,-150.991 863.5001,-140.991 856.5001,-140.9909"/>
</g>
<!-- Tab3Page -->
<g id="node11" class="node">
<title>Tab3Page</title>
<polygon fill="#ffffb3" stroke="#000000" points="1035.979,-122 964.021,-122 964.021,-86 1035.979,-86 1035.979,-122"/>
<text text-anchor="middle" x="1000" y="-99.8" font-family="Times,serif" font-size="14.00" fill="#000000">Tab3Page</text>
</g>
<!-- Tab3PageModule -->
<g id="node12" class="node">
<title>Tab3PageModule</title>
<polygon fill="#8dd3c7" stroke="#000000" points="1057.5298,-187 1054.5298,-191 1033.5298,-191 1030.5298,-187 942.4702,-187 942.4702,-151 1057.5298,-151 1057.5298,-187"/>
<text text-anchor="middle" x="1000" y="-164.8" font-family="Times,serif" font-size="14.00" fill="#000000">Tab3PageModule</text>
</g>
<!-- Tab3Page&#45;&gt;Tab3PageModule -->
<g id="edge8" class="edge">
<title>Tab3Page&#45;&gt;Tab3PageModule</title>
<path fill="none" stroke="#000000" d="M1000,-122.1061C1000,-122.1061 1000,-140.991 1000,-140.991"/>
<polygon fill="#000000" stroke="#000000" points="996.5001,-140.9909 1000,-150.991 1003.5001,-140.991 996.5001,-140.9909"/>
</g>
<!-- TabsPage -->
<g id="node13" class="node">
<title>TabsPage</title>
<polygon fill="#ffffb3" stroke="#000000" points="1344.4249,-122 1273.5751,-122 1273.5751,-86 1344.4249,-86 1344.4249,-122"/>
<text text-anchor="middle" x="1309" y="-99.8" font-family="Times,serif" font-size="14.00" fill="#000000">TabsPage</text>
</g>
<!-- TabsPageModule -->
<g id="node14" class="node">
<title>TabsPageModule</title>
<polygon fill="#8dd3c7" stroke="#000000" points="1288.9734,-187 1285.9734,-191 1264.9734,-191 1261.9734,-187 1175.0266,-187 1175.0266,-151 1288.9734,-151 1288.9734,-187"/>
<text text-anchor="middle" x="1232" y="-164.8" font-family="Times,serif" font-size="14.00" fill="#000000">TabsPageModule</text>
</g>
<!-- TabsPage&#45;&gt;TabsPageModule -->
<g id="edge9" class="edge">
<title>TabsPage&#45;&gt;TabsPageModule</title>
<path fill="none" stroke="#000000" d="M1281.3875,-122.1061C1281.3875,-122.1061 1281.3875,-140.991 1281.3875,-140.991"/>
<polygon fill="#000000" stroke="#000000" points="1277.8875,-140.9909 1281.3875,-150.991 1284.8875,-140.991 1277.8875,-140.9909"/>
</g>
<!-- TabsPageRoutingModule -->
<g id="node15" class="node">
<title>TabsPageRoutingModule</title>
<polygon fill="#8dd3c7" stroke="#000000" points="1249.5912,-122 1246.5912,-126 1225.5912,-126 1222.5912,-122 1090.4088,-122 1090.4088,-86 1249.5912,-86 1249.5912,-122"/>
<text text-anchor="middle" x="1170" y="-99.8" font-family="Times,serif" font-size="14.00" fill="#000000">TabsPageRoutingModule</text>
</g>
<!-- TabsPageRoutingModule&#45;&gt;TabsPageModule -->
<g id="edge10" class="edge">
<title>TabsPageRoutingModule&#45;&gt;TabsPageModule</title>
<path fill="none" stroke="#000000" d="M1212.2795,-122.1061C1212.2795,-122.1061 1212.2795,-140.991 1212.2795,-140.991"/>
<polygon fill="#000000" stroke="#000000" points="1208.7795,-140.9909 1212.2795,-150.991 1215.7795,-140.991 1208.7795,-140.9909"/>
</g>
</g>
</svg>
